<svg xmlns="http://www.w3.org/2000/svg" viewBox="0 0 1000 1000" width="1000" height="1000">
	<style>
		tspan { white-space:pre }
		.shp0 { fill: #fb9e1b } 
		.shp1 { fill: #676465 } 
	</style>
	<g id="Background">
		<path id="Path 2" class="shp0" d="M485.93 338.26C484.04 339.5 481.48 342.54 480.24 345.01C478.67 348.12 477.99 351.26 477.99 355.25C478 359.18 478.95 363.53 481 369C482.65 373.4 484 377.9 484 379C484 380.45 482.55 381.66 478.75 383.36C475.86 384.67 471.48 386.49 469 387.42C466.52 388.36 462.7 390.35 460.5 391.86C458.3 393.36 453.91 398.06 450.75 402.3C447.26 406.97 444.12 410.17 442.75 410.44C441.51 410.68 439.26 411.13 437.75 411.44C436.24 411.75 433.65 413.35 432 415C429.83 417.17 428.83 419.31 428.39 422.75C428.05 425.36 428 428.63 428.27 430C428.61 431.74 427.75 434.02 425.41 437.5C423.56 440.25 421.75 444.07 421.38 446C420.95 448.23 419.44 450.59 417.21 452.5C415.29 454.15 413.17 456.63 412.5 458C411.83 459.38 408.91 468.38 406 478C401.95 491.4 400.92 496.08 401.61 497.96C402.1 499.31 403.71 501.11 405.19 501.96C407.24 503.13 408.56 503.26 410.69 502.5C412.78 501.76 414.4 499.7 417 494.5L420.5 487.5C421.27 502.49 421.86 507.22 422.3 507.67C422.74 508.13 423.87 508 424.8 507.39C426.28 506.43 426.53 503.94 426.75 488.14L427 470C422.38 467.67 421.77 467.77 420 469.5C418.88 470.6 416.39 476.45 414.46 482.5C412.54 488.55 410.64 494.11 410.23 494.86C409.83 495.6 408.98 496.05 408.34 495.86C407.53 495.61 407.92 493.1 409.65 487.5C411 483.1 413.43 475.23 415.03 470C416.77 464.35 418.87 459.62 420.23 458.32C421.48 457.12 425.43 454.84 429 453.26C432.57 451.67 436.29 449.28 437.26 447.94C438.22 446.6 439.02 444.6 439.03 443.5C439.04 442.4 437.88 438.35 436.46 434.5C434.62 429.53 434.03 426.41 434.44 423.75C434.79 421.41 435.85 419.43 437.25 418.49C438.49 417.66 440.85 416.99 442.5 417.01C444.15 417.02 446 417.36 446.6 417.77C447.21 418.17 448.22 419.51 448.85 420.75C449.48 421.99 450.01 424.24 450.01 425.75C450.02 427.26 448.86 431.88 447.44 436C446.01 440.16 445.11 444.5 445.43 445.75C445.74 446.99 447.24 448.83 448.75 449.85C450.26 450.87 453.71 452.56 456.42 453.6C459.52 454.8 462.55 456.98 464.63 459.5C466.84 462.17 467.95 464.58 467.97 466.75C467.99 468.99 467.53 470 466.5 470C465.68 470 464.13 469.44 463.06 468.75C461.42 467.7 460.79 467.81 459.03 469.5C457.06 471.38 456.94 472.53 456.97 488.75C457 504.98 457.12 506.06 459 507C460.48 507.74 461.39 507.61 462.5 506.5C463.69 505.31 464 502.17 464 491.5C464 479.94 464.22 478.07 465.5 478.5C466.32 478.77 467.23 479 467.5 479C467.77 479 468 484.85 468 492C468 504.48 468.09 505.04 470.25 506.12C472.03 507.01 472.71 506.94 473.5 505.77C474.13 504.85 474.5 488.74 474.5 462.56L474.5 420.82C470.63 417.79 468.6 416.94 467.5 416.97C466.4 417 463.56 418.03 461.19 419.26C458.45 420.69 456.61 421.14 456.1 420.5C455.67 419.95 454.35 417.93 453.16 416L451 412.5C456.66 404.75 459.48 401.22 460.9 399.66C462.33 398.09 465.52 395.79 468 394.55C470.48 393.3 474.75 391.54 477.5 390.65C480.25 389.75 484.19 387.66 486.25 386.01C489.46 383.44 490 382.42 490 379C490 376.8 489.49 373.76 488.86 372.25C488.23 370.74 487.03 367.93 486.18 366C485.34 364.07 484.43 360.25 484.16 357.5C483.87 354.42 484.22 351.19 485.09 349.09C485.87 347.21 487.63 344.84 489 343.81C490.44 342.73 493.09 341.95 495.25 341.97C497.31 341.98 500.14 342.56 501.54 343.25C502.93 343.94 504.73 345.96 505.54 347.75C506.34 349.54 506.99 352.91 506.98 355.25C506.97 357.59 505.62 363.32 503.97 368C502.33 372.68 500.98 377.85 500.97 379.5C500.96 381.47 501.9 383.42 503.73 385.2C505.25 386.68 508.3 388.65 510.5 389.57C513.07 390.65 519.14 391.53 527.5 392.02C538.53 392.66 540.69 393.06 541.77 394.64C542.46 395.66 543.03 397.4 543.03 398.5C543.03 399.61 541.8 401.24 540.26 402.17C538.74 403.08 534.8 404.85 531.5 406.1C528.03 407.41 523.69 410.08 521.21 412.43L516.92 416.5C516.91 498.97 517.11 504.66 518.46 505.75C519.71 506.76 520.29 506.71 521.5 505.5C522.75 504.25 523.01 499.97 523.06 480.25C523.1 459.82 523.36 455.87 524.91 452L526.71 447.5C527.69 453.7 527.98 467.09 527.99 481.25C528 503.24 528.22 507.07 529.5 507.5C530.33 507.77 531.7 507.44 532.54 506.75C533.88 505.67 534.08 501.05 534.03 472C533.99 447.14 533.65 437.85 532.71 436C531.97 434.53 530.43 433.38 528.97 433.21C527.6 433.05 525.71 433.71 524.72 434.71C523.01 436.43 522.94 436.13 522.97 427.25C523 418.31 523.09 417.94 525.75 416.08C527.26 415.03 531.88 412.77 536 411.06C540.13 409.36 544.56 406.96 545.86 405.73C547.15 404.5 548.61 402.49 549.11 401.25C549.76 399.61 549.29 397.02 547.41 391.75C545.98 387.76 544.35 382.48 543.79 380C543.22 377.52 543.09 373.7 543.5 371.5C543.93 369.16 545.4 366.36 547.04 364.75C549.28 362.56 550.78 362 554.42 362C558.06 362 559.72 362.61 562.5 365C565.83 367.86 566 368.31 566 374.5C566 378.07 565.59 382.01 565.09 383.25C564.59 384.49 563.24 387.86 562.09 390.75C560.94 393.64 559.98 397.24 559.97 398.75C559.95 400.26 560.78 402.63 561.81 404C562.85 405.38 566.58 407.76 570.1 409.29C573.62 410.83 578.3 413 580.5 414.12C582.7 415.23 585.47 417.58 586.66 419.32C587.87 421.1 592.55 435.7 597.31 452.5C601.98 469 605.96 483.57 606.15 484.88C606.36 486.33 605.83 487.7 604.78 488.38C603.63 489.13 602.71 489.17 602.01 488.5C601.44 487.95 598.28 477.71 594.98 465.75C591.69 453.79 587.99 441.89 586.75 439.31C585.51 436.74 583.74 434.15 582.82 433.56C581.61 432.8 580.42 432.85 578.57 433.75L576 435C576 502.11 576.2 507.07 577.5 507.5C578.33 507.77 579.7 507.44 580.54 506.75C581.87 505.67 582.08 501.5 582.04 476.75C582.02 460.94 582.34 448 582.75 447.99C583.16 447.99 584.07 449.9 584.76 452.24C585.45 454.58 587.83 463.25 590.05 471.5C592.26 479.75 594.62 487.8 595.29 489.4C595.95 490.99 597.74 493.13 599.25 494.15C600.76 495.17 602.67 496 603.5 496C604.33 496 606.35 495.21 608 494.25C609.65 493.29 611.51 491.15 612.14 489.5C613.04 487.11 612.93 485.17 611.58 480C610.65 476.43 608.62 469.23 607.06 464C605.51 458.77 602.57 448.65 600.53 441.5C598.48 434.35 595.95 425.69 594.91 422.25C593.39 417.28 592.1 415.23 588.63 412.25C586.23 410.19 581.25 407.38 577.57 406C573.89 404.63 569.67 402.54 568.19 401.36L565.5 399.21C568.81 390.91 570.38 386.93 571.12 385C571.87 383.07 572.47 378.8 572.46 375.5C572.45 371.26 571.78 368.18 570.18 365C568.7 362.07 566.52 359.71 563.95 358.25C561.31 356.74 558.35 356 555 356C552.25 356 548.76 356.49 547.25 357.09C545.74 357.69 543.49 359.26 542.25 360.59C541.01 361.91 539.28 364.69 538.41 366.75C537.21 369.57 536.94 372.49 537.34 378.5L537.86 386.5C519.5 385.54 515.39 384.84 512.57 383.44C510.41 382.37 508.21 380.82 507.68 380C507.01 378.95 507.57 376.25 509.56 371C511.12 366.88 512.69 361.25 513.05 358.5C513.45 355.39 513.18 351.61 512.34 348.5C511.6 345.75 509.98 342.44 508.74 341.15C507.51 339.87 505.26 338.18 503.75 337.4C502.24 336.63 498.38 336 495.18 336C490.82 336 488.5 336.57 485.93 338.26Z" />
		<path id="Shape 1" class="shp0" d="" />
		<path id="Path 5" class="shp0" d="M352.02 526.75C352.04 527.71 359.01 541.55 367.51 557.5L382.97 586.5C382.97 621.31 383.3 626.83 384.23 627.77C384.93 628.46 386.65 629.03 388.05 629.02C389.45 629.01 391.15 628.44 391.82 627.75C392.69 626.85 393.04 620.85 393.04 606.5L393.05 586.5C403.65 566.35 410.61 553.41 415.36 544.75C420.11 536.09 424 528.33 424 527.5C424 526.67 423.32 525.77 422.5 525.5C421.68 525.23 419.88 525 418.5 525C416.69 525 415.36 526.04 413.68 528.75C412.4 530.81 406.22 542.09 399.93 553.8C393.64 565.52 388.13 574.97 387.69 574.8C387.24 574.64 381.48 564.38 374.89 552C368.3 539.63 362.26 528.49 361.46 527.25C360.35 525.53 359.05 525 356 525C352.85 525 352.01 525.37 352.02 526.75ZM466.37 525.79C465.74 526.21 462.89 533.97 460.03 543.03C457.17 552.09 453.03 565.35 450.83 572.5C448.63 579.65 445.7 589.1 444.34 593.5C442.97 597.9 440.71 605.1 439.33 609.5C437.95 613.9 436.29 619.66 435.66 622.3C434.68 626.35 434.73 627.24 436 628.03C436.82 628.55 438.51 628.98 439.75 628.98C441.01 628.99 442.62 628.01 443.41 626.75C444.18 625.51 445.8 620.9 447 616.5C448.2 612.1 449.82 607.49 450.59 606.25C451.97 604.04 452.36 604 471.5 604C486.06 604 491.18 604.32 491.7 605.25C492.08 605.94 493.66 610.77 495.2 616C496.74 621.23 498.79 626.3 499.75 627.28C500.71 628.26 502.74 629.05 504.25 629.03C505.76 629.01 507.25 628.44 507.56 627.75C507.87 627.06 504 613.23 498.97 597C493.94 580.77 486.93 558.27 483.39 547C479.86 535.73 476.41 526.17 475.73 525.77C475.06 525.36 472.93 525.03 471 525.03C469.07 525.03 466.99 525.37 466.37 525.79ZM523 526.29C522.04 527.32 521.77 538.67 521.83 576.56C521.91 622.24 522.03 625.62 523.71 627.28C524.81 628.38 526.65 628.96 528.5 628.78L531.5 628.5L532 583C568 583 569.05 582.89 570 581C570.67 579.67 570.67 578.17 570 576.5L569 574L532 574L532.5 534.5L580.5 533.5L580.5 525.5C530.07 525.02 524 525.24 523 526.29ZM622.18 526.25C621.61 526.94 617.24 540.1 612.47 555.5C607.7 570.9 601.53 590.7 598.75 599.5C595.98 608.3 592.98 618.12 592.1 621.32C590.68 626.47 590.67 627.24 592 628.05C592.83 628.56 594.4 628.99 595.5 629.02C596.6 629.04 598.22 628.26 599.1 627.28C599.98 626.3 601.92 621.45 603.41 616.5C604.9 611.55 606.32 606.71 606.56 605.75C606.96 604.15 608.81 604 627.5 604L648 604C651.78 616.79 653.24 621.82 653.69 623.42C654.13 625.03 655.54 627.06 656.81 627.92C658.73 629.23 659.53 629.29 661.56 628.25C662.9 627.56 664 626.44 663.99 625.75C663.98 625.06 663.35 622.48 662.58 620C661.81 617.52 658.4 606.73 655 596C651.6 585.27 648.25 574.48 647.55 572C646.85 569.52 643.47 558.5 640.05 547.5C636.63 536.5 633.31 526.92 632.66 526.21C632.02 525.49 629.64 524.93 627.36 524.96C625.09 524.98 622.76 525.56 622.18 526.25Z" />
		<path id="Path 9" class="shp1" d="M206.34 647.91C204.05 648.93 201.13 651.28 199.84 653.13C197.96 655.84 197.5 657.8 197.5 663.18C197.5 668.38 197.96 670.47 199.59 672.68C200.74 674.23 203.22 676.55 205.09 677.84C207.95 679.8 209.5 680.12 214.67 679.84C219.01 679.6 221.68 678.87 223.67 677.38C225.23 676.21 227.3 674.19 228.28 672.88C229.26 671.57 230.31 668.02 230.62 665C231.08 660.41 230.77 658.75 228.74 655C227.04 651.86 224.98 649.82 221.9 648.23C219.48 646.98 215.93 645.98 214 646C212.07 646.02 208.63 646.88 206.34 647.91ZM802.22 647.44C800.41 648.18 797.71 650.5 796.22 652.59C794.49 655 793.36 658.05 793.12 660.94C792.91 663.45 793.24 667.08 793.85 669C794.46 670.92 796.57 674.08 798.54 676C801.74 679.13 802.78 679.53 808.31 679.8C813.19 680.04 815.19 679.68 817.75 678.05C819.54 676.92 821 675.55 821 675C821 674.45 820.66 673.79 820.25 673.54C819.84 673.28 817.7 673.96 815.5 675.04C813.3 676.13 810.38 677.01 809 677C807.63 677 805.04 676.09 803.25 675C801.46 673.9 799.27 671.54 798.37 669.75C797.24 667.48 796.91 664.99 797.27 661.5C797.7 657.36 798.41 655.94 801.4 653.25C804.26 650.66 805.87 650 809.25 649.99C811.59 649.99 814.51 650.66 815.75 651.49C816.99 652.32 818.45 652.77 819 652.5C819.55 652.23 820 651.55 820 651C820 650.45 818.54 649.1 816.75 648C814.88 646.86 811.8 646.02 809.5 646.04C807.3 646.06 804.02 646.69 802.22 647.44ZM168.46 649.75C169.49 651.26 172.29 655.42 174.67 659C178.79 665.18 179.01 665.86 179 672.75C179 679.12 179.21 679.96 180.75 679.66C182.19 679.38 182.54 678.06 182.75 672.16C182.99 665.42 183.29 664.56 188 657.5C190.75 653.38 193.22 649.33 193.5 648.5C193.83 647.5 193.33 647 192 647C190.6 647 188.73 649.08 185.75 653.96C183.41 657.79 181.16 660.94 180.75 660.96C180.34 660.98 178.2 657.85 176 654C172.6 648.05 171.6 647 169.3 647L166.6 647L168.46 649.75ZM237.01 657.75C237.01 663.66 237.44 670.08 237.96 672C238.48 673.92 239.88 676.4 241.07 677.5C242.45 678.78 245.09 679.65 248.37 679.93C252.01 680.23 254.3 679.87 256.25 678.68C257.76 677.75 259.68 675.42 260.5 673.5C261.54 671.07 262 666.5 262 658.5C262 647.67 261.88 647 260 647C258.12 647 258 647.66 258.02 657.75C258.03 663.66 257.58 669.96 257.02 671.75C256.23 674.25 255.19 675.23 252.5 676C249.96 676.73 248.25 676.66 246.28 675.75C244.78 675.06 242.99 673.38 242.29 672C241.5 670.43 241.02 665.31 241.01 658.25C241 647.67 240.88 647 239 647C237.12 647 237 647.66 237.01 657.75ZM266.18 648.75C266.43 649.99 267.56 650.53 270.02 650.6C271.93 650.65 274.29 650.77 275.25 650.85C276.83 650.99 277 652.41 277 665.5C277 679.33 277.09 680 279 680C280.9 680 281.01 679.25 281.25 665.25C281.46 652.99 281.75 650.48 283 650.37C283.82 650.29 286.19 650.18 288.25 650.12C290.87 650.03 292 649.55 292 648.5C292 647.24 289.88 647 278.91 647C266.97 647 265.85 647.15 266.18 648.75ZM297 663C297 676.56 297.23 679 298.5 679C299.7 679 300 677.5 300 671.5L300 664L318 664C318 679.42 318.15 679.98 320 679.75C321.91 679.51 322.01 678.76 322 663.25C322 647.67 321.92 647 320 647C318.19 647 318 647.67 318 654L318 661L300 661C300 648.44 299.69 647 298.5 647C297.23 647 297 649.44 297 663ZM346.65 662.25C342.99 670.64 340 678.06 340 678.75C340 679.44 340.42 680 340.93 680C341.44 680 342.56 679.33 343.43 678.5C344.29 677.67 345.23 675.88 345.5 674.5C345.77 673.13 346.56 671.96 347.25 671.91C347.94 671.87 351.65 671.83 355.5 671.83C359.35 671.84 362.73 671.86 363 671.89C363.27 671.92 364.29 673.75 365.25 675.97C366.59 679.05 367.41 679.86 368.75 679.4C370.35 678.85 370.23 678.13 367.39 671.15C365.68 666.94 362.75 659.79 360.89 655.26C358.17 648.65 357.09 647.02 355.4 647.01C353.64 647 352.2 649.5 346.65 662.25ZM376 663C376 676.33 376.25 679.08 377.5 679.5C378.78 679.93 379 678.17 379 667.5C379 660.17 379.41 654.79 380 654.5C380.55 654.23 382.46 656.19 384.25 658.86C386.04 661.53 389.79 667.04 392.58 671.11C396.25 676.44 398.41 678.64 400.31 679L402.96 679.5C403 649.46 402.77 647 401.5 647C400.25 647 400 649.06 400 659.5C400 666.38 399.66 672.18 399.25 672.4C398.84 672.62 394.45 666.99 389.5 659.89C382.46 649.79 380.01 646.97 378.25 646.98C376.01 647 376 647.08 376 663ZM411 663L411 679C430.83 678.5 430.92 678.48 434.48 675C436.57 672.97 438.51 669.82 439.11 667.5C439.83 664.71 439.82 662.14 439.07 659C438.47 656.49 436.78 653.31 435.25 651.81C433.74 650.34 431.26 648.65 429.75 648.06C428.24 647.48 423.4 647 419 647L411 647L411 663ZM459 663.5C459 678.65 459.14 679.98 460.75 679.74C462.2 679.52 462.54 678.25 462.75 672.24L463 665C477.33 665 478 664.82 478 663C478 661.18 477.33 661 470.5 661C464.13 661 462.96 660.74 462.71 659.25C462.56 658.29 462.67 655.92 462.96 654L463.5 650.5C477.34 650.5 478.5 650.24 478.73 648.75C478.97 647.18 477.96 647 469 647L459 647L459 663.5ZM493.54 650.56C492.64 652.59 491.93 654.41 491.95 654.62C491.98 654.83 489.82 659.61 487.15 665.25C484.48 670.89 482.01 676.51 481.65 677.75C481.11 679.63 481.36 679.96 483.18 679.75C484.65 679.58 485.88 678.26 486.93 675.72C488.21 672.63 489 671.95 491.25 671.97C492.76 671.99 495.91 671.88 498.25 671.72C500.59 671.57 503.29 671.8 504.25 672.22C505.21 672.65 506.45 674.58 507 676.5C507.73 679.05 508.48 679.9 509.75 679.64C510.71 679.44 511.59 678.88 511.71 678.39C511.83 677.9 509.06 670.75 505.57 662.5C500.64 650.86 498.76 647.43 497.19 647.19C495.68 646.95 494.75 647.81 493.54 650.56ZM517.07 662.94C517 678.2 517.1 679.03 519 679.5C520.92 679.98 521.01 679.44 521.25 666.33L521.5 652.67C526.78 664.94 529.14 670.41 530.16 672.75C531.17 675.09 532 677.45 532 678C532 678.55 532.67 679.23 533.5 679.5C534.53 679.84 535.59 678.66 536.86 675.75C537.88 673.41 540.47 667.45 542.61 662.5L546.5 653.5C547.44 677.9 547.72 679.53 549.25 679.75C550.86 679.98 551 678.64 551 663.5L551 647C545.68 646.94 545.13 647.77 540 659.44C536.98 666.32 534.19 671.62 533.81 671.22C533.43 670.83 530.91 665.33 528.22 659C523.58 648.14 523.14 647.48 520.22 647.19L517.14 646.87L517.07 662.94ZM559 663.5C559 679.33 559.08 680 561 680C562.92 680 563 679.33 563 663.5C563 647.67 562.92 647 561 647C559.08 647 559 647.67 559 663.5ZM571.24 663.25L571.5 679.5C588.9 679.5 590 679.29 590 677.75C590 676.24 588.98 676 582.5 676L575 676C575 647.64 574.91 647 572.99 647C571.05 647 570.99 647.56 571.24 663.25ZM591.42 648.41C591.74 649.29 594.25 653.38 597 657.5C601.81 664.71 602 665.27 602 672C602 677.33 602.36 679.12 603.5 679.5C604.33 679.77 605.23 680 605.5 680C605.77 680 606 676.74 606 672.75C605.99 665.86 606.21 665.18 610.33 659C612.71 655.42 615.42 651.26 616.33 649.75C617.96 647.07 617.94 647 615.75 647.01C614.07 647.02 612.37 648.78 609 654C606.52 657.84 604.27 660.97 604 660.96C603.73 660.95 601.67 657.92 599.43 654.22C596.63 649.6 594.65 647.39 593.1 647.16C591.38 646.91 590.97 647.21 591.42 648.41ZM638.59 662.21C634.84 670.62 632.05 678.06 632.38 678.75C632.72 679.44 633.45 680 634 680C634.55 680 635.9 678.2 637 676C638.1 673.8 639.56 671.95 640.25 671.9C640.94 671.84 643.52 671.8 646 671.82C648.48 671.83 651.74 671.87 653.25 671.92C655.51 671.99 656.18 672.63 657 675.5C657.8 678.3 658.5 679 660.5 679L663 679C658.15 667.76 655.11 660.67 653.12 656C650.43 649.71 648.95 647.42 647.45 647.21C645.71 646.96 644.41 649.16 638.59 662.21ZM668 663L668 679C684.33 679 686 678.72 686 677.5C686 676.3 684.5 676 678.5 676L671 676C671 649.28 670.76 647 669.5 647C668.23 647 668 649.44 668 663ZM691 663L691 679C702.63 679.39 706.78 679.5 707.74 679.5C708.69 679.5 709.59 678.71 709.74 677.75C709.97 676.21 709.05 676 702 676L694 676C694.48 648.26 694.35 647 692.75 647C691.16 647 691 648.43 691 663ZM714 663.5C714 678.68 714.14 679.97 715.75 679.66C717.32 679.35 717.53 677.62 717.77 663.16C718.02 647.54 717.96 647 716.02 647C714.08 647 714 647.63 714 663.5ZM729.72 662.46C726.02 671.01 723.23 678.45 723.5 679C723.77 679.55 724.45 680 725 680C725.55 680 726.88 678.09 727.95 675.75L729.91 671.5L746.35 671.5C749.1 678.09 750.08 679.05 751.75 679.03L754 679C750.23 670.09 747.16 663 744.75 657.5C741.55 650.19 739.84 647.42 738.41 647.21C736.75 646.97 735.38 649.36 729.72 662.46ZM759 663C759 676.56 759.23 679 760.5 679C761.75 679 762 676.94 762 666.5C762 658.83 762.39 654 763 654C763.55 654 766.55 657.71 769.67 662.25C772.79 666.79 776.84 672.64 778.67 675.25C781.21 678.87 782.48 679.88 784 679.5C785.9 679.03 786 678.17 786 663C786 649.44 785.77 647 784.5 647C783.25 647 783 649 783 659C783 666 782.58 671.21 782 671.5C781.45 671.77 780.21 670.92 779.25 669.59C778.29 668.26 774.35 662.63 770.5 657.08C765.12 649.32 762.98 646.98 761.25 646.99C759.01 647 759 647.08 759 663ZM827.5 647.67C827.04 648.03 826.74 655.23 826.83 663.67L827 679C842.11 680 847.06 680 847.75 679.64C848.44 679.29 849 678.33 849 677.5C849 676.28 847.33 676 840 676L831 676L831 664C844.97 664 846.5 663.7 846.5 662.5C846.5 661.3 844.97 661 838.75 661L831 661L831.5 650.5C846.31 650.05 848 649.69 848 648.5C848 647.27 846.24 647 838.17 647C832.76 647 827.96 647.3 827.5 647.67Z" />
	</g>
</svg>